<svg xmlns="http://www.w3.org/2000/svg" viewBox="0 0 760 180" role="img" aria-label="Codex Obsidian logo">
  <defs>
    <linearGradient id="obsidian" x1="50" y1="22" x2="138" y2="156" gradientUnits="userSpaceOnUse">
      <stop offset="0" stop-color="#F5EFFF"/>
      <stop offset=".24" stop-color="#8B6BE8"/>
      <stop offset=".58" stop-color="#241936"/>
      <stop offset="1" stop-color="#09070E"/>
    </linearGradient>
    <linearGradient id="frame" x1="28" y1="34" x2="162" y2="146" gradientUnits="userSpaceOnUse">
      <stop offset="0" stop-color="#D7C8FF"/>
      <stop offset="1" stop-color="#1C1429"/>
    </linearGradient>
  </defs>
  <g transform="translate(12 14)">
    <rect x="0" y="0" width="152" height="152" rx="30" fill="#0F0B18"/>
    <path d="M43 46 22 67v18l21 21M109 46l21 21v18l-21 21" fill="none" stroke="url(#frame)" stroke-width="9" stroke-linecap="round" stroke-linejoin="round"/>
    <path d="M76 22 47 50v56l29 28 29-28V50L76 22Z" fill="url(#obsidian)"/>
    <path d="M76 22v112M47 50l29 32 29-32M47 106l29-24 29 24" fill="none" stroke="#F6F0FF" stroke-opacity=".66" stroke-width="3"/>
    <path d="M60 38 76 82 92 38M60 113l16-31 16 31" fill="none" stroke="#A98CFF" stroke-opacity=".55" stroke-width="2.5"/>
  </g>
  <g font-family="Inter, ui-sans-serif, system-ui, -apple-system, BlinkMacSystemFont, Segoe UI, sans-serif">
    <text x="196" y="80" fill="#16121F" font-size="48" font-weight="760">Codex Obsidian</text>
    <text x="198" y="119" fill="#5B506D" font-size="20" font-weight="500">Grade A local workflows for Obsidian and Codex</text>
  </g>
</svg>
